<svg width="360" height="353" viewBox="0 0 360 353" fill="none" xmlns="http://www.w3.org/2000/svg">
	<path d="M150.28 127.302C152.23 121.257 160.782 121.257 162.732 127.302C164.042 131.362 168.824 133.102 172.437 130.834C177.816 127.457 184.368 132.954 181.976 138.838C180.369 142.79 182.914 147.198 187.14 147.782C193.431 148.653 194.917 157.075 189.302 160.045C185.531 162.04 184.648 167.052 187.509 170.216C191.769 174.927 187.493 182.334 181.283 181C177.112 180.104 173.213 183.376 173.371 187.639C173.606 193.986 165.57 196.911 161.67 191.897C159.051 188.53 153.961 188.53 151.342 191.897C147.442 196.911 139.406 193.986 139.641 187.639C139.799 183.376 135.9 180.104 131.73 181C125.52 182.334 121.243 174.927 125.503 170.216C128.365 167.052 127.481 162.04 123.71 160.045C118.095 157.075 119.581 148.653 125.872 147.782C130.098 147.198 132.643 142.79 131.036 138.838C128.644 132.954 135.196 127.457 140.575 130.834C144.188 133.102 148.97 131.362 150.28 127.302Z" fill="url(#paint0_linear_9_202)" />
	<g filter="url(#filter0_biiii_9_202)">
		<path d="M184.867 139.569C187.022 132.89 196.472 132.89 198.627 139.569L199.711 142.93C201.158 147.416 206.442 149.34 210.435 146.833L213.425 144.956C219.369 141.224 226.609 147.298 223.966 153.8L222.636 157.072C220.861 161.438 223.673 166.308 228.342 166.955L231.84 167.439C238.792 168.401 240.433 177.707 234.229 180.989L231.108 182.64C226.941 184.844 225.965 190.383 229.126 193.879L231.495 196.498C236.202 201.704 231.477 209.888 224.615 208.414L221.162 207.673C216.554 206.683 212.246 210.298 212.42 215.008L212.551 218.537C212.811 225.551 203.93 228.783 199.621 223.243L197.453 220.456C194.559 216.735 188.935 216.735 186.041 220.456L183.873 223.243C179.564 228.783 170.683 225.551 170.943 218.537L171.074 215.008C171.248 210.298 166.94 206.683 162.332 207.673L158.879 208.414C152.017 209.888 147.292 201.704 151.999 196.498L154.368 193.879C157.529 190.383 156.553 184.844 152.386 182.64L149.265 180.989C143.061 177.707 144.702 168.401 151.654 167.439L155.152 166.955C159.821 166.308 162.633 161.438 160.858 157.072L159.528 153.8C156.885 147.298 164.125 141.224 170.069 144.956L173.059 146.833C177.052 149.34 182.336 147.416 183.783 142.93L184.867 139.569Z" fill="black" fill-opacity="0.2" />
	</g>
	<circle cx="192.048" cy="181.193" r="13.5542" fill="url(#paint1_linear_9_202)" />
	<defs>
		<filter id="filter0_biiii_9_202" x="136.977" y="126.126" width="109.539" height="114.382" filterUnits="userSpaceOnUse" color-interpolation-filters="sRGB">
			<feFlood flood-opacity="0" result="BackgroundImageFix" />
			<feGaussianBlur in="BackgroundImage" stdDeviation="4.21687" />
			<feComposite in2="SourceAlpha" operator="in" result="effect1_backgroundBlur_9_202" />
			<feBlend mode="normal" in="SourceGraphic" in2="effect1_backgroundBlur_9_202" result="shape" />
			<feColorMatrix in="SourceAlpha" type="matrix" values="0 0 0 0 0 0 0 0 0 0 0 0 0 0 0 0 0 0 127 0" result="hardAlpha" />
			<feOffset dy="-3.61446" />
			<feGaussianBlur stdDeviation="6.0241" />
			<feComposite in2="hardAlpha" operator="arithmetic" k2="-1" k3="1" />
			<feColorMatrix type="matrix" values="0 0 0 0 1 0 0 0 0 1 0 0 0 0 1 0 0 0 0.15 0" />
			<feBlend mode="normal" in2="shape" result="effect2_innerShadow_9_202" />
			<feColorMatrix in="SourceAlpha" type="matrix" values="0 0 0 0 0 0 0 0 0 0 0 0 0 0 0 0 0 0 127 0" result="hardAlpha" />
			<feOffset dy="-6.0241" />
			<feGaussianBlur stdDeviation="10.8765" />
			<feComposite in2="hardAlpha" operator="arithmetic" k2="-1" k3="1" />
			<feColorMatrix type="matrix" values="0 0 0 0 1 0 0 0 0 1 0 0 0 0 1 0 0 0 0.15 0" />
			<feBlend mode="normal" in2="effect2_innerShadow_9_202" result="effect3_innerShadow_9_202" />
			<feColorMatrix in="SourceAlpha" type="matrix" values="0 0 0 0 0 0 0 0 0 0 0 0 0 0 0 0 0 0 127 0" result="hardAlpha" />
			<feOffset dy="14.4578" />
			<feGaussianBlur stdDeviation="7.358" />
			<feComposite in2="hardAlpha" operator="arithmetic" k2="-1" k3="1" />
			<feColorMatrix type="matrix" values="0 0 0 0 1 0 0 0 0 1 0 0 0 0 1 0 0 0 0.1 0" />
			<feBlend mode="normal" in2="effect3_innerShadow_9_202" result="effect4_innerShadow_9_202" />
			<feColorMatrix in="SourceAlpha" type="matrix" values="0 0 0 0 0 0 0 0 0 0 0 0 0 0 0 0 0 0 127 0" result="hardAlpha" />
			<feOffset dy="3.54819" />
			<feGaussianBlur stdDeviation="1.8395" />
			<feComposite in2="hardAlpha" operator="arithmetic" k2="-1" k3="1" />
			<feColorMatrix type="matrix" values="0 0 0 0 1 0 0 0 0 1 0 0 0 0 1 0 0 0 0.15 0" />
			<feBlend mode="normal" in2="effect4_innerShadow_9_202" result="effect5_innerShadow_9_202" />
		</filter>
		<linearGradient id="paint0_linear_9_202" x1="135.12" y1="131.494" x2="153.007" y2="198.497" gradientUnits="userSpaceOnUse">
			<stop stop-color="#D360E5" />
			<stop offset="1" stop-color="#3849FB" />
		</linearGradient>
		<linearGradient id="paint1_linear_9_202" x1="181.807" y1="170.952" x2="200.783" y2="192.036" gradientUnits="userSpaceOnUse">
			<stop stop-color="white" stop-opacity="0.7" />
			<stop offset="1" stop-color="white" stop-opacity="0.2" />
		</linearGradient>
	</defs>
</svg>
