<svg width="400" height="300" viewBox="0 0 400 300" fill="none" xmlns="http://www.w3.org/2000/svg">
	<rect width="400" height="300" />
	<g clip-path="url(#clip0_1_10)">
		<g filter="url(#filter0_di_1_10)">
			<circle cx="185" cy="115" r="65" fill="url(#paint0_radial_1_10)" />
		</g>
		<mask id="mask0_1_10" style="mask-type:alpha" maskUnits="userSpaceOnUse" x="120" y="50" width="130" height="130">
			<circle cx="185" cy="115" r="65" fill="url(#paint1_radial_1_10)" />
		</mask>
		<g mask="url(#mask0_1_10)">
			<g filter="url(#filter1_bd_1_10)">
				<path fill-rule="evenodd" clip-rule="evenodd" d="M190 240C203.87 240 216.641 235.293 226.803 227.39C235.633 235.235 247.26 240 260 240C287.614 240 310 217.614 310 190C310 162.386 287.614 140 260 140C252.341 140 245.084 141.722 238.595 144.8C227.691 129.773 209.987 120 190 120C167.549 120 147.977 132.331 137.69 150.591C116.314 154.083 100 172.636 100 195C100 219.853 120.147 240 145 240C152.502 240 159.575 238.164 165.795 234.917C173.198 238.185 181.387 240 190 240Z" fill="url(#paint2_linear_1_10)" fill-opacity="0.1" />
			</g>
		</g>
		<g filter="url(#filter2_bii_1_10)">
			<path fill-rule="evenodd" clip-rule="evenodd" d="M190 240C203.87 240 216.641 235.293 226.803 227.39C235.633 235.235 247.26 240 260 240C287.614 240 310 217.614 310 190C310 162.386 287.614 140 260 140C252.341 140 245.084 141.722 238.595 144.8C227.691 129.773 209.987 120 190 120C167.549 120 147.977 132.331 137.69 150.591C116.314 154.083 100 172.636 100 195C100 219.853 120.147 240 145 240C152.502 240 159.575 238.164 165.795 234.917C173.198 238.185 181.387 240 190 240Z" fill="#FFC774" fill-opacity="0.1" />
		</g>
	</g>
	<defs>
		<filter id="filter0_di_1_10" x="110" y="28" width="162" height="162" filterUnits="userSpaceOnUse" color-interpolation-filters="sRGB">
			<feFlood flood-opacity="0" result="BackgroundImageFix" />
			<feColorMatrix in="SourceAlpha" type="matrix" values="0 0 0 0 0 0 0 0 0 0 0 0 0 0 0 0 0 0 127 0" result="hardAlpha" />
			<feOffset dx="6" dy="-6" />
			<feGaussianBlur stdDeviation="8" />
			<feColorMatrix type="matrix" values="0 0 0 0 1 0 0 0 0 0.670588 0 0 0 0 0.282353 0 0 0 0.2 0" />
			<feBlend mode="normal" in2="BackgroundImageFix" result="effect1_dropShadow_1_10" />
			<feBlend mode="normal" in="SourceGraphic" in2="effect1_dropShadow_1_10" result="shape" />
			<feColorMatrix in="SourceAlpha" type="matrix" values="0 0 0 0 0 0 0 0 0 0 0 0 0 0 0 0 0 0 127 0" result="hardAlpha" />
			<feOffset dx="-10" dy="10" />
			<feGaussianBlur stdDeviation="10" />
			<feComposite in2="hardAlpha" operator="arithmetic" k2="-1" k3="1" />
			<feColorMatrix type="matrix" values="0 0 0 0 1 0 0 0 0 1 0 0 0 0 1 0 0 0 0.24 0" />
			<feBlend mode="normal" in2="shape" result="effect2_innerShadow_1_10" />
		</filter>
		<filter id="filter1_bd_1_10" x="50" y="70" width="310" height="220" filterUnits="userSpaceOnUse" color-interpolation-filters="sRGB">
			<feFlood flood-opacity="0" result="BackgroundImageFix" />
			<feGaussianBlur in="BackgroundImage" stdDeviation="25" />
			<feComposite in2="SourceAlpha" operator="in" result="effect1_backgroundBlur_1_10" />
			<feColorMatrix in="SourceAlpha" type="matrix" values="0 0 0 0 0 0 0 0 0 0 0 0 0 0 0 0 0 0 127 0" result="hardAlpha" />
			<feOffset dy="-5" />
			<feGaussianBlur stdDeviation="10" />
			<feColorMatrix type="matrix" values="0 0 0 0 1 0 0 0 0 0.540984 0 0 0 0 0 0 0 0 0.5 0" />
			<feBlend mode="normal" in2="effect1_backgroundBlur_1_10" result="effect2_dropShadow_1_10" />
			<feBlend mode="normal" in="SourceGraphic" in2="effect2_dropShadow_1_10" result="shape" />
		</filter>
		<filter id="filter2_bii_1_10" x="80" y="100" width="250" height="160" filterUnits="userSpaceOnUse" color-interpolation-filters="sRGB">
			<feFlood flood-opacity="0" result="BackgroundImageFix" />
			<feGaussianBlur in="BackgroundImage" stdDeviation="10" />
			<feComposite in2="SourceAlpha" operator="in" result="effect1_backgroundBlur_1_10" />
			<feBlend mode="normal" in="SourceGraphic" in2="effect1_backgroundBlur_1_10" result="shape" />
			<feColorMatrix in="SourceAlpha" type="matrix" values="0 0 0 0 0 0 0 0 0 0 0 0 0 0 0 0 0 0 127 0" result="hardAlpha" />
			<feOffset dy="10" />
			<feGaussianBlur stdDeviation="5" />
			<feComposite in2="hardAlpha" operator="arithmetic" k2="-1" k3="1" />
			<feColorMatrix type="matrix" values="0 0 0 0 1 0 0 0 0 1 0 0 0 0 1 0 0 0 0.15 0" />
			<feBlend mode="normal" in2="shape" result="effect2_innerShadow_1_10" />
			<feColorMatrix in="SourceAlpha" type="matrix" values="0 0 0 0 0 0 0 0 0 0 0 0 0 0 0 0 0 0 127 0" result="hardAlpha" />
			<feOffset dy="-10" />
			<feGaussianBlur stdDeviation="5" />
			<feComposite in2="hardAlpha" operator="arithmetic" k2="-1" k3="1" />
			<feColorMatrix type="matrix" values="0 0 0 0 1 0 0 0 0 0.670333 0 0 0 0 0.283333 0 0 0 0.15 0" />
			<feBlend mode="normal" in2="effect2_innerShadow_1_10" result="effect3_innerShadow_1_10" />
		</filter>
		<radialGradient id="paint0_radial_1_10" cx="0" cy="0" r="1" gradientUnits="userSpaceOnUse" gradientTransform="translate(150 40) rotate(63.4349) scale(89.4427)">
			<stop stop-color="#FFE974" />
			<stop offset="1" stop-color="#FFAB48" />
		</radialGradient>
		<radialGradient id="paint1_radial_1_10" cx="0" cy="0" r="1" gradientUnits="userSpaceOnUse" gradientTransform="translate(130 35) rotate(53.4711) scale(168.003)">
			<stop stop-color="#FFDB03" />
			<stop offset="1" stop-color="#F87A1D" />
		</radialGradient>
		<linearGradient id="paint2_linear_1_10" x1="100" y1="120" x2="310" y2="240" gradientUnits="userSpaceOnUse">
			<stop stop-color="#FFAB48" />
			<stop offset="1" stop-color="#F87A1D" />
		</linearGradient>
		<clipPath id="clip0_1_10">
			<rect width="240" height="240" fill="white" transform="translate(80 30)" />
		</clipPath>
	</defs>
</svg>
