<svg width="400" height="300" viewBox="0 0 400 300" fill="none" xmlns="http://www.w3.org/2000/svg">
	<rect width="400" height="300" />
	<g filter="url(#filter0_d_1_111)">
		<path d="M268.612 177.244L143.198 210.848C132.529 213.707 121.562 207.376 118.703 196.706L100.861 130.119C98.0024 119.449 104.334 108.483 115.003 105.624L240.417 72.0192C251.087 69.1604 262.053 75.492 264.912 86.1614L282.754 152.749C285.613 163.418 279.281 174.385 268.612 177.244Z" fill="url(#paint0_linear_1_111)" />
	</g>
	<mask id="mask0_1_111" style="mask-type:alpha" maskUnits="userSpaceOnUse" x="100" y="71" width="184" height="141">
		<path d="M268.612 177.244L143.198 210.848C132.529 213.707 121.562 207.376 118.703 196.706L100.861 130.119C98.0024 119.449 104.334 108.483 115.003 105.624L240.417 72.0192C251.087 69.1604 262.053 75.492 264.912 86.1614L282.754 152.749C285.613 163.418 279.281 174.385 268.612 177.244Z" fill="url(#paint1_linear_1_111)" />
	</mask>
	<g mask="url(#mask0_1_111)">
		<g filter="url(#filter1_bdii_1_111)">
			<path d="M280 225H120C108.954 225 100 216.046 100 205V195V165V135V125C100 113.954 108.954 105 120 105H280C291.046 105 300 113.954 300 125V131.754C300 133.904 299.654 136.04 298.974 138.079L292.108 158.675C290.74 162.781 290.74 167.219 292.108 171.325L298.974 191.921C299.654 193.96 300 196.096 300 198.246V205C300 216.046 291.046 225 280 225Z" fill="url(#paint2_linear_1_111)" />
		</g>
	</g>
	<g filter="url(#filter2_bii_1_111)">
		<path d="M280 225H120C108.954 225 100 216.046 100 205V195V165V135V125C100 113.954 108.954 105 120 105H280C291.046 105 300 113.954 300 125V131.754C300 133.904 299.653 136.04 298.974 138.079L292.108 158.675C290.74 162.781 290.74 167.219 292.108 171.325L298.974 191.921C299.653 193.96 300 196.096 300 198.246V205C300 216.046 291.046 225 280 225Z" fill="url(#paint3_linear_1_111)" fill-opacity="0.1" />
	</g>
	<g opacity="0.5" filter="url(#filter3_b_1_111)">
		<rect x="124" y="200" width="70" height="20" rx="10" transform="rotate(-90 124 200)" fill="white" />
	</g>
	<defs>
		<filter id="filter0_d_1_111" x="90.1748" y="49.3328" width="215.266" height="172.202" filterUnits="userSpaceOnUse" color-interpolation-filters="sRGB">
			<feFlood flood-opacity="0" result="BackgroundImageFix" />
			<feColorMatrix in="SourceAlpha" type="matrix" values="0 0 0 0 0 0 0 0 0 0 0 0 0 0 0 0 0 0 127 0" result="hardAlpha" />
			<feOffset dx="6" dy="-6" />
			<feGaussianBlur stdDeviation="8" />
			<feColorMatrix type="matrix" values="0 0 0 0 0.643137 0 0 0 0 0.701961 0 0 0 0 1 0 0 0 0.2 0" />
			<feBlend mode="normal" in2="BackgroundImageFix" result="effect1_dropShadow_1_111" />
			<feBlend mode="normal" in="SourceGraphic" in2="effect1_dropShadow_1_111" result="shape" />
		</filter>
		<filter id="filter1_bdii_1_111" x="80.0001" y="85" width="240" height="160" filterUnits="userSpaceOnUse" color-interpolation-filters="sRGB">
			<feFlood flood-opacity="0" result="BackgroundImageFix" />
			<feGaussianBlur in="BackgroundImage" stdDeviation="10" />
			<feComposite in2="SourceAlpha" operator="in" result="effect1_backgroundBlur_1_111" />
			<feColorMatrix in="SourceAlpha" type="matrix" values="0 0 0 0 0 0 0 0 0 0 0 0 0 0 0 0 0 0 127 0" result="hardAlpha" />
			<feOffset dx="6" dy="-6" />
			<feGaussianBlur stdDeviation="6" />
			<feColorMatrix type="matrix" values="0 0 0 0 0.643137 0 0 0 0 0.701961 0 0 0 0 1 0 0 0 0.5 0" />
			<feBlend mode="normal" in2="effect1_backgroundBlur_1_111" result="effect2_dropShadow_1_111" />
			<feBlend mode="normal" in="SourceGraphic" in2="effect2_dropShadow_1_111" result="shape" />
			<feColorMatrix in="SourceAlpha" type="matrix" values="0 0 0 0 0 0 0 0 0 0 0 0 0 0 0 0 0 0 127 0" result="hardAlpha" />
			<feOffset dy="10" />
			<feGaussianBlur stdDeviation="5" />
			<feComposite in2="hardAlpha" operator="arithmetic" k2="-1" k3="1" />
			<feColorMatrix type="matrix" values="0 0 0 0 1 0 0 0 0 1 0 0 0 0 1 0 0 0 0.15 0" />
			<feBlend mode="normal" in2="shape" result="effect3_innerShadow_1_111" />
			<feColorMatrix in="SourceAlpha" type="matrix" values="0 0 0 0 0 0 0 0 0 0 0 0 0 0 0 0 0 0 127 0" result="hardAlpha" />
			<feOffset dy="-10" />
			<feGaussianBlur stdDeviation="5" />
			<feComposite in2="hardAlpha" operator="arithmetic" k2="-1" k3="1" />
			<feColorMatrix type="matrix" values="0 0 0 0 0.643137 0 0 0 0 0.701961 0 0 0 0 1 0 0 0 0.15 0" />
			<feBlend mode="normal" in2="effect3_innerShadow_1_111" result="effect4_innerShadow_1_111" />
		</filter>
		<filter id="filter2_bii_1_111" x="80" y="85" width="240" height="160" filterUnits="userSpaceOnUse" color-interpolation-filters="sRGB">
			<feFlood flood-opacity="0" result="BackgroundImageFix" />
			<feGaussianBlur in="BackgroundImage" stdDeviation="10" />
			<feComposite in2="SourceAlpha" operator="in" result="effect1_backgroundBlur_1_111" />
			<feBlend mode="normal" in="SourceGraphic" in2="effect1_backgroundBlur_1_111" result="shape" />
			<feColorMatrix in="SourceAlpha" type="matrix" values="0 0 0 0 0 0 0 0 0 0 0 0 0 0 0 0 0 0 127 0" result="hardAlpha" />
			<feOffset dy="10" />
			<feGaussianBlur stdDeviation="5" />
			<feComposite in2="hardAlpha" operator="arithmetic" k2="-1" k3="1" />
			<feColorMatrix type="matrix" values="0 0 0 0 1 0 0 0 0 1 0 0 0 0 1 0 0 0 0.15 0" />
			<feBlend mode="normal" in2="shape" result="effect2_innerShadow_1_111" />
			<feColorMatrix in="SourceAlpha" type="matrix" values="0 0 0 0 0 0 0 0 0 0 0 0 0 0 0 0 0 0 127 0" result="hardAlpha" />
			<feOffset dy="-10" />
			<feGaussianBlur stdDeviation="5" />
			<feComposite in2="hardAlpha" operator="arithmetic" k2="-1" k3="1" />
			<feColorMatrix type="matrix" values="0 0 0 0 0.643137 0 0 0 0 0.701961 0 0 0 0 1 0 0 0 0.15 0" />
			<feBlend mode="normal" in2="effect2_innerShadow_1_111" result="effect3_innerShadow_1_111" />
		</filter>
		<filter id="filter3_b_1_111" x="104" y="110" width="60" height="110" filterUnits="userSpaceOnUse" color-interpolation-filters="sRGB">
			<feFlood flood-opacity="0" result="BackgroundImageFix" />
			<feGaussianBlur in="BackgroundImage" stdDeviation="10" />
			<feComposite in2="SourceAlpha" operator="in" result="effect1_backgroundBlur_1_111" />
			<feBlend mode="normal" in="SourceGraphic" in2="effect1_backgroundBlur_1_111" result="shape" />
		</filter>
		<linearGradient id="paint0_linear_1_111" x1="275.126" y1="115.784" x2="112.702" y2="166.507" gradientUnits="userSpaceOnUse">
			<stop stop-color="#FFABBC" />
			<stop offset="1" stop-color="#A4B3FF" />
			<stop offset="1" stop-color="#A4B3FF" />
		</linearGradient>
		<linearGradient id="paint1_linear_1_111" x1="275.126" y1="115.784" x2="112.702" y2="166.507" gradientUnits="userSpaceOnUse">
			<stop stop-color="#FFABBC" />
			<stop offset="1" stop-color="#A4B3FF" />
		</linearGradient>
		<linearGradient id="paint2_linear_1_111" x1="302.589" y1="161.462" x2="102.426" y2="170.217" gradientUnits="userSpaceOnUse">
			<stop stop-color="#FFABBC" />
			<stop offset="1" stop-color="#A4B3FF" />
			<stop offset="1" stop-color="#A4B3FF" />
		</linearGradient>
		<linearGradient id="paint3_linear_1_111" x1="302.589" y1="161.462" x2="102.426" y2="170.217" gradientUnits="userSpaceOnUse">
			<stop stop-color="#FFABBC" />
			<stop offset="1" stop-color="#A4B3FF" />
		</linearGradient>
	</defs>
</svg>
